<?xml version="1.0" encoding="utf-8"?>
<!-- Generator: Adobe Illustrator 22.0.1, SVG Export Plug-In . SVG Version: 6.00 Build 0)  -->
<svg version="1.1" id="logo" xmlns="http://www.w3.org/2000/svg" xmlns:xlink="http://www.w3.org/1999/xlink" x="0px" y="0px"
	 viewBox="0 0 250 100" style="enable-background:new 0 0 250 100;" xml:space="preserve">
<style type="text/css">
	.st0{fill:#FFC107;}
</style>
<title>logo</title>
<path class="st0" d="M94.1,80.7c0,0.6,0,1.3,0.1,1.9l0,0c-0.1-0.2-0.3-0.4-0.5-0.9l-6.6-10.3h-2v13.2h1.6v-9.5c0-0.6,0-1.2-0.1-1.8
	h0.1c0.1,0.3,0.3,0.6,0.4,0.8l6.8,10.5h1.9V71.4h-1.5v9.3H94.1z"/>
<path class="st0" d="M107.6,71.4l-5.1,13.2h1.7l1.3-3.7h5.6l1.4,3.7h1.7l-5-13.2H107.6z M106.1,79.5l2-5.6c0.1-0.3,0.2-0.6,0.2-0.9
	l0,0c0,0.3,0.1,0.6,0.2,0.9l2.1,5.6H106.1z"/>
<rect x="121.1" y="71.4" class="st0" width="1.5" height="13.2"/>
<polygon class="st0" points="132.6,71.4 131,71.4 131,84.6 137.9,84.6 137.9,83.2 132.6,83.2 "/>
<path class="st0" d="M161.2,78.9c-0.3-0.3-0.7-0.6-1.1-0.9c-0.4-0.3-0.9-0.5-1.3-0.7l-1.2-0.6c-0.3-0.2-0.6-0.4-0.9-0.6
	c-0.2-0.2-0.4-0.4-0.6-0.7c-0.1-0.3-0.2-0.6-0.2-0.9s0.1-0.6,0.3-0.9s0.4-0.5,0.6-0.6c0.3-0.2,0.6-0.3,0.9-0.3
	c0.3-0.1,0.7-0.1,1-0.1c1.1,0,2.1,0.2,3,0.8v-1.7c-0.9-0.4-1.9-0.5-2.8-0.5c-0.6,0-1.1,0.1-1.7,0.2c-0.5,0.1-1,0.3-1.5,0.6
	c-0.4,0.3-0.8,0.7-1,1.1c-0.3,0.5-0.4,1-0.4,1.6c0,0.4,0.1,0.9,0.3,1.3s0.4,0.7,0.7,1s0.6,0.6,1,0.8c0.4,0.2,0.8,0.5,1.3,0.7
	l1.2,0.6c0.4,0.2,0.7,0.4,1,0.6s0.5,0.4,0.6,0.7c0.2,0.3,0.2,0.6,0.2,0.9c0,0.6-0.2,1.2-0.7,1.5c-0.6,0.4-1.4,0.6-2.1,0.5
	c-0.3,0-0.6,0-0.9-0.1c-0.3-0.1-0.7-0.1-1-0.2s-0.6-0.2-0.9-0.4c-0.3-0.1-0.5-0.3-0.8-0.5v1.8c0.2,0.1,0.4,0.2,0.7,0.3
	c0.3,0.1,0.6,0.2,0.9,0.2l0.9,0.2c0.3,0,0.6,0.1,0.8,0.1c0.6,0,1.2-0.1,1.8-0.2c0.5-0.1,1-0.3,1.5-0.6c0.4-0.3,0.8-0.7,1-1.1
	c0.3-0.5,0.4-1.1,0.4-1.7c0-0.5-0.1-0.9-0.3-1.3C161.7,79.6,161.5,79.2,161.2,78.9z"/>
<path class="st0" d="M173.3,71.4l-5.1,13.2h1.7l1.3-3.7h5.6l1.4,3.7h1.7l-5.1-13.2H173.3z M171.8,79.5l2.1-5.6
	c0.1-0.3,0.2-0.6,0.2-0.9l0,0c0,0.3,0.1,0.6,0.2,0.9l2.1,5.6H171.8z"/>
<polygon class="st0" points="188.4,71.4 186.8,71.4 186.8,84.6 193.7,84.6 193.7,83.2 188.4,83.2 "/>
<path class="st0" d="M205.5,71.2c-1.8-0.1-3.5,0.6-4.7,1.9c-1.2,1.4-1.8,3.2-1.7,5.1c-0.1,1.8,0.5,3.5,1.7,4.8
	c1.2,1.2,2.8,1.9,4.5,1.8c1.7,0.1,3.4-0.6,4.6-1.9c1.2-1.4,1.8-3.2,1.7-5.1c0.1-1.8-0.5-3.5-1.7-4.8
	C208.8,71.8,207.2,71.1,205.5,71.2z M208.7,82c-0.9,1-2.1,1.5-3.4,1.4c-1.3,0-2.5-0.5-3.3-1.5c-1.7-2.3-1.7-5.5,0-7.9
	c0.8-1,2.1-1.5,3.4-1.5c1.3-0.1,2.5,0.5,3.4,1.4c0.9,1.1,1.3,2.6,1.2,4C210,79.4,209.6,80.8,208.7,82z"/>
<path class="st0" d="M228.1,71.4v9.3c0,0.6,0,1.3,0.1,1.9l0,0c-0.1-0.2-0.3-0.4-0.5-0.9l-6.6-10.3h-2v13.2h1.6v-9.5
	c0-0.6,0-1.2-0.1-1.8h0.1c0.1,0.3,0.3,0.6,0.4,0.8l6.8,10.5h1.9V71.4H228.1z"/>
<path class="st0" d="M126.1,37.4c1-1.2,1.5-2.7,1.5-4.2c0-1.6-0.8-3.2-2.2-4.1c-1.5-1.1-3.6-1.7-6.5-1.7c-3.3,0-6.6,0.7-9.6,2.3
	c-2.7,1.4-5.1,3.4-6.7,6c-1.5,2.3-2.4,5-2.4,7.7c-0.1,1.7,0.4,3.4,1.4,4.8c0.9,1.3,1.8,2,2.7,2c0.3,0,0.7-0.1,0.9-0.4
	c0.2-0.2,0.4-0.5,0.4-0.9c0-0.3-0.1-0.6-0.3-0.9c-0.4-0.4-0.8-0.8-1.3-1.1s-0.9-0.6-1.3-1c-0.3-0.4-0.6-0.9-0.7-1.4
	c-0.2-0.6-0.3-1.1-0.3-1.7c0.1-2.4,0.8-4.6,2.2-6.6c1.5-2.3,3.6-4.1,6-5.3c2.5-1.4,5.3-2.1,8.2-2.1c1.6-0.1,3.2,0.3,4.6,1.2
	c1,0.8,1.6,2,1.5,3.2c0,1.9-0.7,3.7-2.1,5c-1.4,1.4-3.5,2.1-6.3,2.1l1.3-5.3c0.3-1,0.7-2.3,1.2-3.9c-1.9,0.5-3.9,0.8-5.8,0.9
	l-0.3,1.2c0.2,0,0.3-0.1,0.5-0.1c0.3,0,0.5,0.1,0.8,0.3c0.2,0.2,0.3,0.4,0.3,0.6c0,0.4-0.1,0.9-0.2,1.3l-3.5,13.8
	c-0.6,2.4-1.3,3.9-2,4.6c-1,0.8-2.3,1.2-3.5,1.2l-0.4,1.3c1.4-0.3,2.9-0.4,4.3-0.4c1,0,2.1,0,3,0.1c2,0.1,3.3,0.2,4,0.2
	c2.1,0,4.2-0.5,6.1-1.5c1.8-0.9,3.3-2.2,4.4-3.8c1-1.4,1.5-3.1,1.5-4.8c0-1-0.2-1.9-0.7-2.8c-0.4-0.8-1.1-1.5-1.8-2
	c-1-0.6-2.1-1-3.3-1.1C123.3,39.8,124.9,38.8,126.1,37.4z M122.4,43.9c0.5,0.8,0.8,1.7,0.8,2.7c0,2.1-0.8,4.1-2.1,5.7
	c-1.6,1.8-3.9,2.8-6.3,2.6c-1.2,0-2.5-0.2-3.7-0.5c0.6-0.6,1-1.3,1.3-2c0.7-1.9,1.3-3.8,1.8-5.7l1.2-4.8c1.6-0.1,3.3,0.1,4.9,0.5
	C121.1,42.6,121.9,43.2,122.4,43.9z"/>
<path class="st0" d="M141.3,36.1c-3.2,0-6,1.9-8.3,5.7c-2,3-3,6.5-3.1,10.1c-0.1,1.3,0.2,2.6,0.9,3.6c0.6,0.8,1.6,1.2,2.6,1.1
	c2.8,0,6.1-1.8,9.9-5.5l-0.8-1c-1.4,1.1-3,2.1-4.6,3c-0.7,0.3-1.4,0.5-2.1,0.5c-0.6,0-1.2-0.2-1.6-0.7c-0.4-0.7-0.6-1.5-0.5-2.3
	c0-0.8,0.1-1.6,0.2-2.4c3-1.4,5-2.3,5.9-2.8c1.5-0.8,2.8-1.8,3.8-3.1c0.7-0.9,1-1.9,1.1-3c0-0.9-0.3-1.7-0.9-2.3
	C143.1,36.4,142.2,36.1,141.3,36.1z M140,43c-1.7,1.6-3.6,2.8-5.7,3.7c0.3-1.8,0.8-3.6,1.5-5.3c0.4-1,1-1.9,1.9-2.7
	c0.5-0.4,1.1-0.6,1.7-0.7c0.5,0,1,0.2,1.4,0.6c0.4,0.5,0.6,1,0.5,1.6C141.2,41.3,140.8,42.3,140,43z"/>
<path class="st0" d="M161.8,53.1c-0.4,0.3-0.8,0.4-1.2,0.5c-0.4,0-0.6-0.3-0.6-0.7c0.1-1.1,0.3-2.2,0.5-3.3c0.6-3.1,1.3-5.8,2-8.2
	l1.8-6l-1.6,0.3l-0.6,0.9c-0.5-0.1-1-0.1-1.5-0.1c-1.7-0.1-3.4,0.2-4.9,0.9c-1.8,0.9-3.4,2.2-4.7,3.7c-1.5,1.7-2.7,3.5-3.6,5.6
	c-0.8,1.8-1.3,3.7-1.3,5.6c-0.1,1.2,0.3,2.4,1,3.4c0.5,0.7,1.3,1,2.1,1c1.1-0.1,2.2-0.4,3.2-1.1c1.8-1.1,3.5-2.5,4.9-4.2l-0.9,3.2
	c-0.1,0.3-0.2,0.7-0.2,1s0.1,0.6,0.3,0.8c0.3,0.2,0.6,0.3,0.9,0.3c0.6,0,1.2-0.2,1.8-0.4c1-0.4,2-0.9,2.8-1.5c0.5-0.4,1.7-1.4,3.5-3
	l-0.8-0.9C163.8,51.8,162.8,52.5,161.8,53.1z M157.8,46.7c-0.4,1.9-1.4,3.7-2.7,5.1c-0.9,1-2.2,1.6-3.5,1.8c-0.6,0-1.1-0.2-1.4-0.7
	c-0.4-0.7-0.6-1.5-0.6-2.3c0-2.1,0.5-4.2,1.4-6.1c0.6-1.6,1.7-3.1,3-4.2c1.1-0.8,2.4-1.2,3.7-1.2c0.7,0,1.4,0.1,2.2,0.3L157.8,46.7z
	"/>
<path class="st0" d="M183.8,53.8c-0.3,0.2-0.6,0.3-0.9,0.4c-0.2,0-0.4-0.1-0.5-0.2c-0.2-0.2-0.2-0.4-0.2-0.7c0.5-2.8,1.2-5.5,2-8.2
	l2.2-8.3H183l-2.6,9.7c-0.5,1.9-1.7,3.7-3.2,5c-1.6,1.5-2.9,2.2-3.8,2.2c-0.3,0-0.5-0.1-0.7-0.3s-0.3-0.5-0.3-0.9
	c0.4-2.2,0.9-4.4,1.5-6.6c0.8-2.6,1.4-5.3,1.7-8c0-0.5-0.1-0.9-0.4-1.3c-0.2-0.3-0.6-0.4-0.9-0.4c-0.9,0.1-1.9,0.4-2.7,0.9
	c-1.7,1.1-3.4,2.3-4.8,3.7l1,0.8c0.8-0.8,1.6-1.5,2.5-2.1c0.3-0.2,0.7-0.4,1.2-0.4c0.3,0,0.5,0.2,0.5,0.7c-0.3,2.3-0.9,4.6-1.6,6.8
	c-0.8,3-1.4,5-1.6,6c-0.1,0.7-0.2,1.3-0.2,2c-0.1,0.6,0.1,1.2,0.5,1.7c0.3,0.4,0.8,0.6,1.3,0.5c1.3-0.1,2.5-0.5,3.6-1.2
	c2-1.1,3.7-2.5,5.2-4.2c-0.3,1.1-0.5,2.2-0.5,3.3c0,0.6,0.2,1.2,0.5,1.7c0.3,0.4,0.8,0.6,1.3,0.6c1.5,0,3.8-1.7,7-5l-0.8-0.9
	C185.8,52.1,184.8,53,183.8,53.8z"/>
<path class="st0" d="M201.5,50c-1.2,1-2.5,1.9-3.8,2.6c-0.7,0.5-1.4,0.8-2.3,0.9c-0.3,0-0.5-0.1-0.8-0.3c-0.2-0.3-0.3-0.6-0.3-0.9
	c0.1-1.7,0.5-3.4,1-5l2.1-7.9h4.9l0.4-1.7h-4.9l1.7-6.6l-3.8,1.4l-1.3,5.2h-3.8l-0.4,1.7h3.8l-2.4,9.4c-0.5,1.7-0.8,3.4-0.9,5.2
	c-0.1,0.7,0.1,1.5,0.5,2.1c0.3,0.4,0.8,0.7,1.4,0.6c1-0.1,2-0.4,2.8-0.9c2.4-1.4,4.7-3,6.9-4.8L201.5,50z"/>
<path class="st0" d="M222.2,36.7c-0.3-0.4-0.8-0.7-1.3-0.6c-0.4,0-0.8,0.2-1.1,0.5s-0.5,0.7-0.4,1.1c0.1,0.8,0.2,1.6,0.4,2.4
	c0.2,0.8,0.4,1.6,0.4,2.4c0,2.9-1.3,6.8-4,11.7c0-0.7,0-1.3,0-1.7c0-2.9-0.5-5.9-1.4-8.6c-0.7-2.5-1.9-4.9-3.5-7.1
	c-0.2-0.3-0.6-0.6-1-0.6s-0.8,0.1-1.1,0.3c-1.2,0.7-2.4,1.4-3.6,2.2l-1.6,1.2l0.8,1.1c0.9-0.8,2.1-1.4,3.3-1.6
	c0.8,0.1,1.5,0.6,1.9,1.3c1.4,2.1,2.3,4.5,2.7,7c0.6,2.6,0.9,5.2,1,7.9c0,1.6-0.5,3.2-1.3,4.6c-0.9,1.6-2.1,2.9-3.5,4
	c-0.9,0.7-1.9,1.1-3.1,1.2c-0.7-0.1-1.3-0.2-2-0.3c-0.7-0.2-1.5-0.3-2.2-0.3c-0.6,0-1.2,0.1-1.7,0.5c-0.4,0.3-0.6,0.7-0.6,1.2
	c0,0.6,0.3,1.1,0.8,1.4c0.7,0.4,1.5,0.6,2.4,0.6c1.5,0,3-0.4,4.4-1.1c1.8-0.9,3.4-2.2,4.8-3.7c2.1-2.4,3.9-5,5.4-7.8
	c1.8-3.1,3.3-6.4,4.4-9.8c0.8-2.5,1.3-5,1.4-7.6C222.8,37.9,222.6,37.2,222.2,36.7z"/>
<path class="st0" d="M96.4,24.2c-3,0.9-6.1,1.5-9.2,1.8c0.4-1.1,0.7-6.7,0-13.8c-19,0.4-24.3,10.9-29,18.7
	c-8.6-19.4-24.9-18.7-29.8-18.7c-0.7,3.5,0.7,12.7,0.7,12.7c-3,0.5-6,0.5-9,0c-1.6,15.9,4.4,24,12.2,33.1
	c21.2,19.4,15.9,28.2,15.9,28.2c3.6-1,7.1-2.5,10.2-4.5c0,1,6,3.5,10.2,6.2c-3.9-11.9,13-27,21.5-36.5
	C99.6,37.2,96.4,24.2,96.4,24.2z M78.9,16.5c1.1,14.2-3.5,12.6-6.3,14c-2.7,1.4-13.2,9.9-13.2,9.9C63.3,20,75.9,19.5,78.9,16.5z
	 M37.2,16.5c3,2.9,15.7,3.5,19.5,23.9c0,0-10.5-8.5-13.2-9.9C40.7,29.1,36.2,30.6,37.2,16.5z M52,81.7c2.1-6-4.2-14.8-14.1-27.2
	s-7.8-19.4-6.7-24c0.3,6,16.2,27.9,22.6,36C61.2,78.9,52,81.7,52,81.7z M58.4,66.5c-1.4-9.5-18-32.8-18-32.8
	c6.3,3.2,14.5,9.5,18.7,16.3c3.5-8.5,12.3-12.8,18.7-16.3C72.5,36.9,60.1,59.5,58.4,66.5z M79.3,54.5c-9.9,12.4-16.2,21.2-14.2,27.2
	c0,0-9.2-2.8-1.8-15.1c6.4-8.1,22.2-30,22.6-36C87,35.1,89.1,42.2,79.3,54.5z"/>
</svg>
