<svg id="logo" xmlns="http://www.w3.org/2000/svg" viewBox="0 0 250 100"><defs><style>.cls-1,.cls-2{font-size:43.19px;font-family:Binhlong-Bold, Binhlong;font-weight:700;}.cls-1,.cls-3{fill:#e20707;}</style></defs><title>Artboard 5</title><text class="cls-1" transform="translate(5 77.76)">DEG </text><text class="cls-2" transform="translate(140.46 77.76)">eauty</text><g id="polish"><path d="M149.51,25.38c.64,1.91-1.75,6.44-2.89,8.21-4.05,6.29-10.32,10.74-16.94,14-6.11,3-14.68,4-18.75,10.12-4.44,6.62-.63,14.27,5.65,18a16.2,16.2,0,0,0,21.53-4.53c4.77-6.51,2.59-14.7-3.59-19.45,1.6,1.56,2.06,3.91,2.4,6.12a19.91,19.91,0,0,1,.14,7.62,11.61,11.61,0,0,1-10.34,8.47c-6.67.48-13-4.36-13-11.19,0-9.47,15-11.56,21.32-15C142.48,43.63,152.72,35,149.51,25.38Z"/><path d="M120.11,23.79V48.43a82.57,82.57,0,0,0,7.95-4.77V23Z"/><path class="cls-3" d="M117.57,65.31c2.75,1.64,5.8,2.31,8.78.43,2.26-1.42,5.59-6.86,7.71-2.3,2.71,5.82-5.91,7.7-10,7.05C121.37,70.07,118.23,68.17,117.57,65.31Z"/></g></svg>