<svg id="logo" xmlns="http://www.w3.org/2000/svg" viewBox="0 0 250 100"><defs><style>.cls-1{fill:#a7d8d0;}.cls-2{stroke:#000;stroke-miterlimit:10;stroke-width:0.75px;}</style></defs><title>logo</title><path class="cls-1" d="M115.05,20.52c-1.82.27-3.65.46-5.46.81a93.48,93.48,0,0,0-18.53,5.79A66.81,66.81,0,0,0,76.5,35a25.09,25.09,0,0,0-4.24,4.19c-1.24,1.55-.64,3.22,1.3,3.56a16.86,16.86,0,0,0,5.62.17c9.13-1.57,17.45-5.33,25.46-9.83a65.43,65.43,0,0,0,15.5-11.55,25.72,25.72,0,0,0,5.57-8.13c1.53-3.84,1.78-7.56-.82-11.1l.36-.17a26.69,26.69,0,0,1,1.69,3.16c1,2.71.58,5.52.19,8.28-1.27,9-6,15.76-13.44,20.78a2,2,0,0,0-.81.94c2-.9,4-1.79,6-2.71a114.61,114.61,0,0,1,18.63-7.25,49.05,49.05,0,0,1,19.21-1.58,2.28,2.28,0,0,0,2.11-.74,18.57,18.57,0,0,1,8.67-4.34c5.34-1.3,10,.27,14.41,3.35a28.05,28.05,0,0,0,4.66,2.69,5.17,5.17,0,0,0,2.92.27c1.6-.28,1.92-.82,2.13-2.45a3.86,3.86,0,0,1,.25-1c.32-.76.95-.84,1.48-.2a2,2,0,0,1-.32,3.21,8.88,8.88,0,0,1-4.89,1.62A24.26,24.26,0,0,1,178.49,25c-3.69-1.13-7.33-2.41-11-3.51a7.63,7.63,0,0,0-7.09,1,4.53,4.53,0,0,0-.81,1.19,4.41,4.41,0,0,0,1.26.64,9.89,9.89,0,0,0,2.43.07c8.76-.92,16,2.25,22.37,8,1.36,1.23,3,2.2,4.4,3.34.26.2.32.66.47,1a3,3,0,0,1-.89.24c-2.46-.2-4.93-.35-7.38-.67a64.23,64.23,0,0,1-8.32-1.41c-4.8-1.31-8.6-4.28-12-7.87a11.21,11.21,0,0,0-1.71-1.52,1.52,1.52,0,0,0-1.25-.25c-.25.15-.36.82-.29,1.22a6.85,6.85,0,0,0,3.61,5c2.8,1.53,5.71,2.87,8.61,4.2,4,1.83,7.9,3.66,10.83,7,1.21,1.4,2.4,2.89,2.4,4.86a2.21,2.21,0,0,1-.78,1.65,5.15,5.15,0,0,1-2,.3,5.1,5.1,0,0,1,.36-1.8,2.86,2.86,0,0,0-.79-4.32,11.17,11.17,0,0,0-5.67-1.83,22.18,22.18,0,0,1-8.2-2.28,15.52,15.52,0,0,1-7.24-8c-.82-2-1.25-4.2-1.92-6.28a1.39,1.39,0,0,0-.9-.81,43.25,43.25,0,0,0-11.7.06,63.36,63.36,0,0,0-14.56,3.75c-3.56,1.37-7,2.94-10.54,4.44C114,35.15,107.86,38,101.56,40.39a62.53,62.53,0,0,1-14,3.3,41.14,41.14,0,0,1-12,.36,9.46,9.46,0,0,1-2.75-.86c-1.58-.79-2-2.39-1.48-4.41,1.22-4.53,4.34-7.54,8-10.06A46.15,46.15,0,0,1,95.5,22.23a84.69,84.69,0,0,1,18.91-1.95c.22,0,.43.06.64.09Z"/><path class="cls-1" d="M97,44.29a96.63,96.63,0,0,0,14.06-4.12c4.82-1.74,9.63-3.54,14.54-5A23.35,23.35,0,0,1,136,34.35a11.67,11.67,0,0,1,6.07,3.14,21,21,0,0,1,4.64,6.69,1.09,1.09,0,0,1,0,.58c-2.29-4.53-6.46-5.09-10.77-5a72,72,0,0,0-8.89.82c-4,.52-8,1.25-12,1.77-5.61.72-11.22,1.34-16.83,2A11.22,11.22,0,0,1,97,44.29Z"/><path class="cls-2" d="M92.33,67.78a24.52,24.52,0,0,0,.15,3.29h-.06c-.13-.27-.44-.77-.91-1.5L80.3,52H76.89V74.4h2.62V58.21a23.9,23.9,0,0,0-.12-3.07h.09a7.72,7.72,0,0,0,.72,1.4L91.73,74.4H95V52H92.33Z"/><path class="cls-2" d="M113.23,52l-8.6,22.4h2.93l2.23-6.28h9.5l2.37,6.28h2.91L116,52Zm-2.57,13.76,3.49-9.55a9.21,9.21,0,0,0,.36-1.5h.06a10.28,10.28,0,0,0,.34,1.5l3.52,9.55Z"/><rect class="cls-2" x="134.27" y="52" width="2.63" height="22.41"/><polygon class="cls-2" points="151.81 51.99 149.18 51.99 149.18 74.4 160.81 74.4 160.81 72.03 151.81 72.03 151.81 51.99"/><path class="cls-2" d="M182.7,66.53a6.48,6.48,0,0,0-1.29-1.77,10.48,10.48,0,0,0-1.89-1.45c-.72-.44-1.48-.86-2.28-1.25s-1.47-.74-2.07-1.06a9.77,9.77,0,0,1-1.52-1,3.62,3.62,0,0,1-1-1.15,3.23,3.23,0,0,1-.32-1.48,2.8,2.8,0,0,1,.42-1.56,3.35,3.35,0,0,1,1.1-1.05,4.74,4.74,0,0,1,1.53-.59,9,9,0,0,1,1.72-.17,8.71,8.71,0,0,1,5.09,1.37V52.42a10.94,10.94,0,0,0-4.83-.8,11.36,11.36,0,0,0-2.85.36,8,8,0,0,0-2.49,1.09,5.86,5.86,0,0,0-1.77,1.87,5.1,5.1,0,0,0-.67,2.66,5,5,0,0,0,.43,2.18,5.7,5.7,0,0,0,1.18,1.67A9.37,9.37,0,0,0,173,62.79c.68.41,1.41.81,2.19,1.21s1.43.73,2.07,1.07a10.45,10.45,0,0,1,1.67,1.06,4.63,4.63,0,0,1,1.1,1.22,3.12,3.12,0,0,1,.4,1.58,3,3,0,0,1-1.2,2.59,6,6,0,0,1-3.62.9,9.66,9.66,0,0,1-1.53-.14,14.14,14.14,0,0,1-1.65-.4,10.6,10.6,0,0,1-1.56-.63,6.11,6.11,0,0,1-1.27-.85v3.1a5.08,5.08,0,0,0,1.16.53,12,12,0,0,0,1.54.41c.54.11,1.07.19,1.6.25a11.66,11.66,0,0,0,1.31.09,14.14,14.14,0,0,0,3-.32,7.81,7.81,0,0,0,2.54-1,5.32,5.32,0,0,0,1.75-1.87,5.66,5.66,0,0,0,.65-2.8A4.9,4.9,0,0,0,182.7,66.53Z"/><path class="cls-2" d="M97.6,89.1v0a2.79,2.79,0,0,0,1.44-1,2.72,2.72,0,0,0,.52-1.67,2.33,2.33,0,0,0-.86-1.87,3.51,3.51,0,0,0-2.33-.72H93.16V95.11h3.29a3.89,3.89,0,0,0,2.63-.9,3,3,0,0,0,1-2.35A2.62,2.62,0,0,0,99.43,90,2.83,2.83,0,0,0,97.6,89.1ZM94.48,85H96c1.45,0,2.17.55,2.17,1.65a1.84,1.84,0,0,1-.62,1.48,2.59,2.59,0,0,1-1.71.52H94.48Zm3.61,8.36a2.68,2.68,0,0,1-1.81.55h-1.8V89.84H96q2.73,0,2.73,2A1.88,1.88,0,0,1,98.09,93.36Z"/><polygon class="cls-2" points="107.95 89.95 112.04 89.95 112.04 88.77 107.95 88.77 107.95 85 112.37 85 112.37 83.8 106.63 83.8 106.63 95.11 112.62 95.11 112.62 93.91 107.95 93.91 107.95 89.95"/><path class="cls-2" d="M122.12,83.8l-4.34,11.31h1.48l1.13-3.17h4.79l1.2,3.17h1.46L123.49,83.8Zm-1.29,7,1.76-4.82a6,6,0,0,0,.18-.75h0a4.55,4.55,0,0,0,.17.75l1.78,4.82Z"/><path class="cls-2" d="M140.46,90.75q0,3.36-2.83,3.36t-2.94-3.48V83.8h-1.32v6.92q0,4.57,4.12,4.58,4.29,0,4.29-4.76V83.8h-1.32Z"/><polygon class="cls-2" points="147.66 85 150.92 85 150.92 95.11 152.24 95.11 152.24 85 155.51 85 155.51 83.8 147.66 83.8 147.66 85"/><path class="cls-2" d="M167.67,83.8,165,88.91a6.3,6.3,0,0,0-.3.7h0c-.15-.4-.24-.63-.28-.7l-2.53-5.11h-1.5L164,91v4.15h1.33V90.93l3.73-7.13Z"/></svg>