<svg id="logo" xmlns="http://www.w3.org/2000/svg" viewBox="0 0 268 157"><defs><style>.cls-1{fill:#bf7408;}</style></defs><title>logo</title><path d="M95,120.61H91.79L80.26,102.75a7.41,7.41,0,0,1-.72-1.4h-.09a23.24,23.24,0,0,1,.13,3.07v16.19H77V98.21h3.41l11.22,17.57c.46.73.77,1.23.9,1.5h.06a24.52,24.52,0,0,1-.15-3.29V98.21H95Z"/><path d="M124.63,120.61h-2.9l-2.38-6.28h-9.5l-2.23,6.28h-2.93l8.6-22.4H116ZM118.49,112,115,102.42a8.88,8.88,0,0,1-.35-1.5h-.06a8.27,8.27,0,0,1-.36,1.5L110.73,112Z"/><path d="M137,120.61h-2.62V98.21H137Z"/><path d="M160.87,120.61H149.25V98.21h2.62v20h9Z"/><path d="M169.66,119.71v-3.1a6.11,6.11,0,0,0,1.27.85,10.29,10.29,0,0,0,1.57.63,13.51,13.51,0,0,0,1.64.4,9.78,9.78,0,0,0,1.54.14,6,6,0,0,0,3.61-.9,3,3,0,0,0,1.2-2.59,3,3,0,0,0-.4-1.57,4.52,4.52,0,0,0-1.1-1.23,11.2,11.2,0,0,0-1.67-1.06c-.64-.34-1.33-.7-2.07-1.07s-1.51-.8-2.18-1.21a9.13,9.13,0,0,1-1.77-1.34,5.66,5.66,0,0,1-1.18-1.66,5.11,5.11,0,0,1-.43-2.18,5.21,5.21,0,0,1,.67-2.67,5.86,5.86,0,0,1,1.77-1.87,8,8,0,0,1,2.49-1.09,11.36,11.36,0,0,1,2.85-.36,10.94,10.94,0,0,1,4.83.8v3a8.79,8.79,0,0,0-5.09-1.37,8.3,8.3,0,0,0-1.72.18A4.82,4.82,0,0,0,174,101a3.35,3.35,0,0,0-1.1,1,2.8,2.8,0,0,0-.42,1.56,3.31,3.31,0,0,0,.32,1.49,3.71,3.71,0,0,0,1,1.14,9.77,9.77,0,0,0,1.52,1c.6.32,1.29.67,2.07,1.06s1.56.81,2.28,1.25a10.48,10.48,0,0,1,1.89,1.45,6.48,6.48,0,0,1,1.29,1.77,4.9,4.9,0,0,1,.48,2.22,5.63,5.63,0,0,1-.65,2.8,5.32,5.32,0,0,1-1.75,1.87,7.72,7.72,0,0,1-2.54,1,14.14,14.14,0,0,1-3,.32,11.81,11.81,0,0,1-1.31-.09c-.52-.06-1.06-.14-1.6-.25a13.85,13.85,0,0,1-1.54-.4A5.52,5.52,0,0,1,169.66,119.71Z"/><path d="M93.22,141.32V130h3.22a3.5,3.5,0,0,1,2.32.71,2.33,2.33,0,0,1,.86,1.87,2.72,2.72,0,0,1-.52,1.67,2.77,2.77,0,0,1-1.43,1v0a2.82,2.82,0,0,1,1.83.86,2.7,2.7,0,0,1,.68,1.9,3,3,0,0,1-1,2.34,3.87,3.87,0,0,1-2.63.9Zm1.32-10.11v3.66H95.9a2.55,2.55,0,0,0,1.71-.53,1.81,1.81,0,0,0,.62-1.48c0-1.1-.72-1.65-2.17-1.65Zm0,4.85v4.07h1.8a2.69,2.69,0,0,0,1.81-.56,1.87,1.87,0,0,0,.64-1.51c0-1.34-.91-2-2.73-2Z"/><path d="M112.68,141.32h-6V130h5.74v1.19H108V135h4.08v1.19H108v4h4.66Z"/><path d="M127.91,141.32h-1.47l-1.2-3.17h-4.79l-1.13,3.17h-1.47l4.33-11.3h1.37Zm-3.1-4.36L123,132.15a6.17,6.17,0,0,1-.17-.76h0a4.07,4.07,0,0,1-.18.76L120.89,137Z"/><path d="M141.85,136.75c0,3.18-1.44,4.76-4.3,4.76s-4.12-1.52-4.12-4.58V130h1.33v6.82q0,3.48,2.93,3.48t2.83-3.36V130h1.33Z"/><path d="M155.57,131.21h-3.26v10.11H151V131.21h-3.26V130h7.85Z"/><path d="M169.14,130l-3.73,7.12v4.18h-1.33v-4.14L160.45,130H162l2.53,5.11q0,.09.27.69h0a4.16,4.16,0,0,1,.29-.69l2.66-5.11Z"/><polygon class="cls-1" points="130.51 19.38 132.42 34.27 143.99 18.5 130.51 19.38"/><polygon class="cls-1" points="127.08 54.11 128.7 56.01 131.19 37.41 121.22 46.29 127.08 54.11"/><polygon class="cls-1" points="121.72 44.22 131.36 35.62 129.44 21.47 121.72 44.22"/><polygon class="cls-1" points="132.81 35.8 135.92 38.98 138.71 41.85 143.83 21.29 132.81 35.8"/><polygon class="cls-1" points="139.79 43.33 141.62 48.25 148.64 38.25 139.79 43.33"/><polygon class="cls-1" points="130.65 57.83 137.72 62.3 141.96 64.99 140.68 51.01 130.65 57.83"/><polygon class="cls-1" points="135.15 69.94 117.66 78.72 138.65 76.67 135.15 69.94"/><polygon class="cls-1" points="139.8 75.5 141.98 66.44 131.18 59.61 139.8 75.5"/><polygon class="cls-1" points="143.21 66.57 143.05 67.22 141.31 74.43 150.49 62.63 143.21 66.57"/><polygon class="cls-1" points="127.39 59.83 126.98 60.07 118.79 64.94 115.88 76.15 127.39 59.83"/><polygon class="cls-1" points="149.99 36.07 145.31 20.51 139.98 41.81 149.99 36.07"/><polygon class="cls-1" points="151.48 49.15 150.29 38.08 142.75 49.29 151.48 49.15"/><polygon class="cls-1" points="130.13 54.91 138.25 43.12 132.45 37.18 130.13 54.91"/><polygon class="cls-1" points="126.85 58.73 113.95 59.1 118.67 63.59 121.61 61.84 126.85 58.73"/><polygon class="cls-1" points="138.83 44.43 131.6 54.92 140.46 49.65 138.83 44.43"/><polygon class="cls-1" points="129.46 59.02 116.31 78.03 134.59 68.86 129.46 59.02"/><polygon class="cls-1" points="120.7 43.41 125.28 29.91 128.66 19.98 123.69 22.31 118.65 24.67 119.88 35.93 120.7 43.41"/><polygon class="cls-1" points="147.81 81.4 151.61 63.18 140.59 77.44 147.81 81.4"/><polygon class="cls-1" points="137.19 88.82 146.68 82.38 140 78.52 137.19 88.82"/><polygon class="cls-1" points="124.02 87.71 135.32 89.57 138.22 78.93 124.02 87.71"/><polygon class="cls-1" points="152.06 59.19 151.59 50.75 143.14 50.56 152.06 59.19"/><polygon class="cls-1" points="142.97 62.64 143.17 64.81 151.69 60.56 141.94 51.46 142.97 62.64"/><polygon class="cls-1" points="115.76 80.14 122.42 87.26 136.38 78.42 115.76 80.14"/><polygon class="cls-1" points="130.17 17.09 130.39 16.93 135.42 5.92 129.31 6.02 129.61 9.79 130.17 17.09"/><polygon class="cls-1" points="144.18 17.23 140.37 11.01 132.26 17.54 144.18 17.23"/><polygon class="cls-1" points="139.63 10.01 136.54 6.41 132.43 15.4 139.63 10.01"/><polygon class="cls-1" points="128.97 17.34 128.16 6.94 123.52 12.38 126.24 14.86 128.97 17.34"/><polygon class="cls-1" points="113.24 60.22 114.69 75.69 117.19 64.33 113.24 60.22"/><polygon class="cls-1" points="128.61 18.66 122.92 13.48 119.13 23.1 124.66 20.51 128.61 18.66"/><polygon class="cls-1" points="126.13 54.87 114.28 40.95 113.13 57.88 127.67 56.93 126.13 54.87"/><polygon class="cls-1" points="118.11 30.97 117.73 27.51 114.46 39.24 119.6 44.52 118.11 30.97"/></svg>